<svg width="18" height="21" viewBox="0 0 18 21" fill="none" xmlns="http://www.w3.org/2000/svg">
<path fill-rule="evenodd" clip-rule="evenodd" d="M4.84615 0.807692C4.84615 0.36162 4.48453 0 4.03846 0C3.59239 0 3.23077 0.36162 3.23077 0.807692V9.69231C3.23077 9.7193 3.23209 9.74599 3.23468 9.7723C1.38938 10.145 0 11.7756 0 13.7308C0 15.6859 1.38938 17.3166 3.23468 17.6893C3.23209 17.7156 3.23077 17.7423 3.23077 17.7692V20.1923C3.23077 20.6383 3.59239 21 4.03846 21C4.48453 21 4.84615 20.6383 4.84615 20.1923V17.7692C4.84615 17.7423 4.84483 17.7156 4.84225 17.6893C6.68753 17.3166 8.07692 15.6859 8.07692 13.7308C8.07692 11.7756 6.68753 10.145 4.84225 9.7723C4.84483 9.74599 4.84615 9.7193 4.84615 9.69231V0.807692ZM14.5385 0.807692C14.5385 0.36162 14.1768 0 13.7308 0C13.2848 0 12.9231 0.36162 12.9231 0.807692V3.23077C12.9231 3.25776 12.9244 3.28445 12.927 3.31076C11.0817 3.68343 9.69231 5.31408 9.69231 7.26923C9.69231 9.22438 11.0817 10.855 12.927 11.2277C12.9244 11.254 12.9231 11.2807 12.9231 11.3077V20.1923C12.9231 20.6383 13.2848 21 13.7308 21C14.1768 21 14.5385 20.6383 14.5385 20.1923V11.3077C14.5385 11.2807 14.5372 11.254 14.5346 11.2277C16.3798 10.855 17.7692 9.22438 17.7692 7.26923C17.7692 5.31408 16.3798 3.68343 14.5346 3.31076C14.5372 3.28445 14.5385 3.25776 14.5385 3.23077V0.807692ZM4.03846 11.3077C2.70023 11.3077 1.61538 12.3925 1.61538 13.7308C1.61538 15.069 2.70023 16.1538 4.03846 16.1538C5.3767 16.1538 6.46154 15.069 6.46154 13.7308C6.46154 12.3925 5.3767 11.3077 4.03846 11.3077ZM11.3077 7.26923C11.3077 5.931 12.3925 4.84615 13.7308 4.84615C15.069 4.84615 16.1538 5.931 16.1538 7.26923C16.1538 8.60746 15.069 9.69231 13.7308 9.69231C12.3925 9.69231 11.3077 8.60746 11.3077 7.26923Z" fill="white"/>
</svg>
